<?xml version="1.0" encoding="UTF-8"?>
<svg xmlns="http://www.w3.org/2000/svg" width="2000" height="500" viewBox="0 0 2000 500">
  <!-- Ten Frame Double 14 -->
  <rect x="100.0" y="82.0" width="168.0" height="168.0" fill="none" stroke="#000000" stroke-width="8"/>
<rect x="268.0" y="82.0" width="168.0" height="168.0" fill="none" stroke="#000000" stroke-width="8"/>
<rect x="436.0" y="82.0" width="168.0" height="168.0" fill="none" stroke="#000000" stroke-width="8"/>
<rect x="604.0" y="82.0" width="168.0" height="168.0" fill="none" stroke="#000000" stroke-width="8"/>
<rect x="772.0" y="82.0" width="168.0" height="168.0" fill="none" stroke="#000000" stroke-width="8"/>
<rect x="100.0" y="250.0" width="168.0" height="168.0" fill="none" stroke="#000000" stroke-width="8"/>
<rect x="268.0" y="250.0" width="168.0" height="168.0" fill="none" stroke="#000000" stroke-width="8"/>
<rect x="436.0" y="250.0" width="168.0" height="168.0" fill="none" stroke="#000000" stroke-width="8"/>
<rect x="604.0" y="250.0" width="168.0" height="168.0" fill="none" stroke="#000000" stroke-width="8"/>
<rect x="772.0" y="250.0" width="168.0" height="168.0" fill="none" stroke="#000000" stroke-width="8"/>
<rect x="1060.0" y="82.0" width="168.0" height="168.0" fill="none" stroke="#000000" stroke-width="8"/>
<rect x="1228.0" y="82.0" width="168.0" height="168.0" fill="none" stroke="#000000" stroke-width="8"/>
<rect x="1396.0" y="82.0" width="168.0" height="168.0" fill="none" stroke="#000000" stroke-width="8"/>
<rect x="1564.0" y="82.0" width="168.0" height="168.0" fill="none" stroke="#000000" stroke-width="8"/>
<rect x="1732.0" y="82.0" width="168.0" height="168.0" fill="none" stroke="#000000" stroke-width="8"/>
<rect x="1060.0" y="250.0" width="168.0" height="168.0" fill="none" stroke="#000000" stroke-width="8"/>
<rect x="1228.0" y="250.0" width="168.0" height="168.0" fill="none" stroke="#000000" stroke-width="8"/>
<rect x="1396.0" y="250.0" width="168.0" height="168.0" fill="none" stroke="#000000" stroke-width="8"/>
<rect x="1564.0" y="250.0" width="168.0" height="168.0" fill="none" stroke="#000000" stroke-width="8"/>
<rect x="1732.0" y="250.0" width="168.0" height="168.0" fill="none" stroke="#000000" stroke-width="8"/>
<circle cx="184.0" cy="166.0" r="45.36" fill="#000000"/>
<circle cx="352.0" cy="166.0" r="45.36" fill="#000000"/>
<circle cx="520.0" cy="166.0" r="45.36" fill="#000000"/>
<circle cx="688.0" cy="166.0" r="45.36" fill="#000000"/>
<circle cx="856.0" cy="166.0" r="45.36" fill="#000000"/>
<circle cx="184.0" cy="334.0" r="45.36" fill="#000000"/>
<circle cx="352.0" cy="334.0" r="45.36" fill="#000000"/>
<circle cx="520.0" cy="334.0" r="45.36" fill="#000000"/>
<circle cx="688.0" cy="334.0" r="45.36" fill="#000000"/>
<circle cx="856.0" cy="334.0" r="45.36" fill="#000000"/>
<circle cx="1144.0" cy="166.0" r="45.36" fill="#000000"/>
<circle cx="1312.0" cy="166.0" r="45.36" fill="#000000"/>
<circle cx="1480.0" cy="166.0" r="45.36" fill="#000000"/>
<circle cx="1648.0" cy="166.0" r="45.36" fill="#000000"/>
</svg>
