<?xml version="1.0" encoding="UTF-8"?>
<svg xmlns="http://www.w3.org/2000/svg" width="2000" height="350" viewBox="0 0 2000 350">
  <!-- Number Line 0-50 -->
  <line x1="120" y1="175.0" x2="1880" y2="175.0" stroke="#000000" stroke-width="8"/>
<line x1="120.0" y1="135.0" x2="120.0" y2="215.0" stroke="#000000" stroke-width="4.0"/>
<line x1="155.2" y1="135.0" x2="155.2" y2="215.0" stroke="#000000" stroke-width="4.0"/>
<line x1="190.4" y1="135.0" x2="190.4" y2="215.0" stroke="#000000" stroke-width="4.0"/>
<line x1="225.60000000000002" y1="135.0" x2="225.60000000000002" y2="215.0" stroke="#000000" stroke-width="4.0"/>
<line x1="260.8" y1="135.0" x2="260.8" y2="215.0" stroke="#000000" stroke-width="4.0"/>
<line x1="296.0" y1="135.0" x2="296.0" y2="215.0" stroke="#000000" stroke-width="4.0"/>
<line x1="331.20000000000005" y1="135.0" x2="331.20000000000005" y2="215.0" stroke="#000000" stroke-width="4.0"/>
<line x1="366.40000000000003" y1="135.0" x2="366.40000000000003" y2="215.0" stroke="#000000" stroke-width="4.0"/>
<line x1="401.6" y1="135.0" x2="401.6" y2="215.0" stroke="#000000" stroke-width="4.0"/>
<line x1="436.8" y1="135.0" x2="436.8" y2="215.0" stroke="#000000" stroke-width="4.0"/>
<line x1="472.0" y1="135.0" x2="472.0" y2="215.0" stroke="#000000" stroke-width="4.0"/>
<line x1="507.20000000000005" y1="135.0" x2="507.20000000000005" y2="215.0" stroke="#000000" stroke-width="4.0"/>
<line x1="542.4000000000001" y1="135.0" x2="542.4000000000001" y2="215.0" stroke="#000000" stroke-width="4.0"/>
<line x1="577.6" y1="135.0" x2="577.6" y2="215.0" stroke="#000000" stroke-width="4.0"/>
<line x1="612.8000000000001" y1="135.0" x2="612.8000000000001" y2="215.0" stroke="#000000" stroke-width="4.0"/>
<line x1="648.0" y1="135.0" x2="648.0" y2="215.0" stroke="#000000" stroke-width="4.0"/>
<line x1="683.2" y1="135.0" x2="683.2" y2="215.0" stroke="#000000" stroke-width="4.0"/>
<line x1="718.4000000000001" y1="135.0" x2="718.4000000000001" y2="215.0" stroke="#000000" stroke-width="4.0"/>
<line x1="753.6" y1="135.0" x2="753.6" y2="215.0" stroke="#000000" stroke-width="4.0"/>
<line x1="788.8000000000001" y1="135.0" x2="788.8000000000001" y2="215.0" stroke="#000000" stroke-width="4.0"/>
<line x1="824.0" y1="135.0" x2="824.0" y2="215.0" stroke="#000000" stroke-width="4.0"/>
<line x1="859.2" y1="135.0" x2="859.2" y2="215.0" stroke="#000000" stroke-width="4.0"/>
<line x1="894.4000000000001" y1="135.0" x2="894.4000000000001" y2="215.0" stroke="#000000" stroke-width="4.0"/>
<line x1="929.6" y1="135.0" x2="929.6" y2="215.0" stroke="#000000" stroke-width="4.0"/>
<line x1="964.8000000000001" y1="135.0" x2="964.8000000000001" y2="215.0" stroke="#000000" stroke-width="4.0"/>
<line x1="1000.0000000000001" y1="135.0" x2="1000.0000000000001" y2="215.0" stroke="#000000" stroke-width="4.0"/>
<line x1="1035.2" y1="135.0" x2="1035.2" y2="215.0" stroke="#000000" stroke-width="4.0"/>
<line x1="1070.4" y1="135.0" x2="1070.4" y2="215.0" stroke="#000000" stroke-width="4.0"/>
<line x1="1105.6000000000001" y1="135.0" x2="1105.6000000000001" y2="215.0" stroke="#000000" stroke-width="4.0"/>
<line x1="1140.8000000000002" y1="135.0" x2="1140.8000000000002" y2="215.0" stroke="#000000" stroke-width="4.0"/>
<line x1="1176.0" y1="135.0" x2="1176.0" y2="215.0" stroke="#000000" stroke-width="4.0"/>
<line x1="1211.2" y1="135.0" x2="1211.2" y2="215.0" stroke="#000000" stroke-width="4.0"/>
<line x1="1246.4" y1="135.0" x2="1246.4" y2="215.0" stroke="#000000" stroke-width="4.0"/>
<line x1="1281.6000000000001" y1="135.0" x2="1281.6000000000001" y2="215.0" stroke="#000000" stroke-width="4.0"/>
<line x1="1316.8000000000002" y1="135.0" x2="1316.8000000000002" y2="215.0" stroke="#000000" stroke-width="4.0"/>
<line x1="1352.0" y1="135.0" x2="1352.0" y2="215.0" stroke="#000000" stroke-width="4.0"/>
<line x1="1387.2" y1="135.0" x2="1387.2" y2="215.0" stroke="#000000" stroke-width="4.0"/>
<line x1="1422.4" y1="135.0" x2="1422.4" y2="215.0" stroke="#000000" stroke-width="4.0"/>
<line x1="1457.6000000000001" y1="135.0" x2="1457.6000000000001" y2="215.0" stroke="#000000" stroke-width="4.0"/>
<line x1="1492.8000000000002" y1="135.0" x2="1492.8000000000002" y2="215.0" stroke="#000000" stroke-width="4.0"/>
<line x1="1528.0" y1="135.0" x2="1528.0" y2="215.0" stroke="#000000" stroke-width="4.0"/>
<line x1="1563.2" y1="135.0" x2="1563.2" y2="215.0" stroke="#000000" stroke-width="4.0"/>
<line x1="1598.4" y1="135.0" x2="1598.4" y2="215.0" stroke="#000000" stroke-width="4.0"/>
<line x1="1633.6000000000001" y1="135.0" x2="1633.6000000000001" y2="215.0" stroke="#000000" stroke-width="4.0"/>
<line x1="1668.8000000000002" y1="135.0" x2="1668.8000000000002" y2="215.0" stroke="#000000" stroke-width="4.0"/>
<line x1="1704.0000000000002" y1="135.0" x2="1704.0000000000002" y2="215.0" stroke="#000000" stroke-width="4.0"/>
<line x1="1739.2" y1="135.0" x2="1739.2" y2="215.0" stroke="#000000" stroke-width="4.0"/>
<line x1="1774.4" y1="135.0" x2="1774.4" y2="215.0" stroke="#000000" stroke-width="4.0"/>
<line x1="1809.6000000000001" y1="135.0" x2="1809.6000000000001" y2="215.0" stroke="#000000" stroke-width="4.0"/>
<line x1="1844.8000000000002" y1="135.0" x2="1844.8000000000002" y2="215.0" stroke="#000000" stroke-width="4.0"/>
<line x1="1880.0000000000002" y1="135.0" x2="1880.0000000000002" y2="215.0" stroke="#000000" stroke-width="4.0"/>
</svg>
