<?xml version="1.0" encoding="UTF-8"?>
<svg xmlns="http://www.w3.org/2000/svg" width="1000" height="1000" viewBox="0 0 1000 1000">
  <!-- Base Ten Hundred -->
  <rect x="80" y="80" width="840.0" height="840.0" fill="none" stroke="#000000" stroke-width="8"/>
<line x1="164.0" y1="80" x2="164.0" y2="920.0" stroke="#000000" stroke-width="4.0"/>
<line x1="80" y1="164.0" x2="920.0" y2="164.0" stroke="#000000" stroke-width="4.0"/>
<line x1="248.0" y1="80" x2="248.0" y2="920.0" stroke="#000000" stroke-width="4.0"/>
<line x1="80" y1="248.0" x2="920.0" y2="248.0" stroke="#000000" stroke-width="4.0"/>
<line x1="332.0" y1="80" x2="332.0" y2="920.0" stroke="#000000" stroke-width="4.0"/>
<line x1="80" y1="332.0" x2="920.0" y2="332.0" stroke="#000000" stroke-width="4.0"/>
<line x1="416.0" y1="80" x2="416.0" y2="920.0" stroke="#000000" stroke-width="4.0"/>
<line x1="80" y1="416.0" x2="920.0" y2="416.0" stroke="#000000" stroke-width="4.0"/>
<line x1="500.0" y1="80" x2="500.0" y2="920.0" stroke="#000000" stroke-width="4.0"/>
<line x1="80" y1="500.0" x2="920.0" y2="500.0" stroke="#000000" stroke-width="4.0"/>
<line x1="584.0" y1="80" x2="584.0" y2="920.0" stroke="#000000" stroke-width="4.0"/>
<line x1="80" y1="584.0" x2="920.0" y2="584.0" stroke="#000000" stroke-width="4.0"/>
<line x1="668.0" y1="80" x2="668.0" y2="920.0" stroke="#000000" stroke-width="4.0"/>
<line x1="80" y1="668.0" x2="920.0" y2="668.0" stroke="#000000" stroke-width="4.0"/>
<line x1="752.0" y1="80" x2="752.0" y2="920.0" stroke="#000000" stroke-width="4.0"/>
<line x1="80" y1="752.0" x2="920.0" y2="752.0" stroke="#000000" stroke-width="4.0"/>
<line x1="836.0" y1="80" x2="836.0" y2="920.0" stroke="#000000" stroke-width="4.0"/>
<line x1="80" y1="836.0" x2="920.0" y2="836.0" stroke="#000000" stroke-width="4.0"/>
</svg>
