<?xml version="1.0" encoding="UTF-8"?>
<svg xmlns="http://www.w3.org/2000/svg" width="1200" height="1200" viewBox="0 0 1200 1200">
  <!-- 12x12 Chart Blank -->
  <rect x="80" y="80" width="1040.0" height="1040.0" fill="none" stroke="#000000" stroke-width="8"/>
<line x1="166.66666666666669" y1="80" x2="166.66666666666669" y2="1120.0" stroke="#000000" stroke-width="4.0"/>
<line x1="80" y1="166.66666666666669" x2="1120.0" y2="166.66666666666669" stroke="#000000" stroke-width="4.0"/>
<line x1="253.33333333333334" y1="80" x2="253.33333333333334" y2="1120.0" stroke="#000000" stroke-width="4.0"/>
<line x1="80" y1="253.33333333333334" x2="1120.0" y2="253.33333333333334" stroke="#000000" stroke-width="4.0"/>
<line x1="340.0" y1="80" x2="340.0" y2="1120.0" stroke="#000000" stroke-width="4.0"/>
<line x1="80" y1="340.0" x2="1120.0" y2="340.0" stroke="#000000" stroke-width="4.0"/>
<line x1="426.6666666666667" y1="80" x2="426.6666666666667" y2="1120.0" stroke="#000000" stroke-width="4.0"/>
<line x1="80" y1="426.6666666666667" x2="1120.0" y2="426.6666666666667" stroke="#000000" stroke-width="4.0"/>
<line x1="513.3333333333334" y1="80" x2="513.3333333333334" y2="1120.0" stroke="#000000" stroke-width="4.0"/>
<line x1="80" y1="513.3333333333334" x2="1120.0" y2="513.3333333333334" stroke="#000000" stroke-width="4.0"/>
<line x1="600.0" y1="80" x2="600.0" y2="1120.0" stroke="#000000" stroke-width="4.0"/>
<line x1="80" y1="600.0" x2="1120.0" y2="600.0" stroke="#000000" stroke-width="4.0"/>
<line x1="686.6666666666667" y1="80" x2="686.6666666666667" y2="1120.0" stroke="#000000" stroke-width="4.0"/>
<line x1="80" y1="686.6666666666667" x2="1120.0" y2="686.6666666666667" stroke="#000000" stroke-width="4.0"/>
<line x1="773.3333333333334" y1="80" x2="773.3333333333334" y2="1120.0" stroke="#000000" stroke-width="4.0"/>
<line x1="80" y1="773.3333333333334" x2="1120.0" y2="773.3333333333334" stroke="#000000" stroke-width="4.0"/>
<line x1="860.0" y1="80" x2="860.0" y2="1120.0" stroke="#000000" stroke-width="4.0"/>
<line x1="80" y1="860.0" x2="1120.0" y2="860.0" stroke="#000000" stroke-width="4.0"/>
<line x1="946.6666666666667" y1="80" x2="946.6666666666667" y2="1120.0" stroke="#000000" stroke-width="4.0"/>
<line x1="80" y1="946.6666666666667" x2="1120.0" y2="946.6666666666667" stroke="#000000" stroke-width="4.0"/>
<line x1="1033.3333333333335" y1="80" x2="1033.3333333333335" y2="1120.0" stroke="#000000" stroke-width="4.0"/>
<line x1="80" y1="1033.3333333333335" x2="1120.0" y2="1033.3333333333335" stroke="#000000" stroke-width="4.0"/>
</svg>
